<svg width="600" height="600" viewBox="0 0 600 600" fill="none" xmlns="http://www.w3.org/2000/svg">
<rect width="600" height="600" fill="#006CB7"/>
<path d="M95.3675 235.824H56.498C46.9015 271.54 45.4113 308.949 52.1366 345.315C58.8618 381.681 73.6324 416.083 95.3675 446.004V235.824Z" fill="white"/>
<path d="M541.42 228.588L540.922 229.683C530.426 227.649 519.747 226.704 509.056 226.862C497.942 226.883 486.868 228.209 476.062 230.812C465.98 233.119 456.24 236.722 447.085 241.533V437.805C441.852 439.212 436.528 440.255 431.152 440.926C423.601 441.899 415.994 442.365 408.381 442.32C391.32 442.32 379.005 439.598 371.437 434.154C363.836 428.71 360.051 418.055 360.051 402.288V230.181C359.785 220.549 362.573 211.079 368.018 203.128C373.91 194.99 381.469 188.2 390.191 183.212C404.283 175.055 419.524 169.069 435.4 165.454C453.555 161.019 472.178 158.79 490.867 158.815C496.871 158.793 502.87 159.17 508.824 159.944C485.187 125.491 453.39 97.4231 416.27 78.2449C379.149 59.0667 337.859 49.374 296.082 50.0313C254.305 50.6887 213.341 61.6756 176.842 82.0122C140.343 102.349 109.445 131.403 86.9034 166.582H333.895C336.591 171.24 338.814 176.155 340.534 181.254C342.677 187.672 343.732 194.404 343.654 201.17C343.654 213.186 340.799 221.949 335.123 227.393C332.15 230.151 328.659 232.292 324.854 233.694C321.048 235.095 317.002 235.729 312.95 235.558H293.034V351.171C293.034 362.102 295.501 369.914 300.436 374.605C305.371 379.296 312.762 381.642 322.609 381.642C322.975 383.534 323.373 385.692 323.738 388.115C324.176 391.771 324.365 395.453 324.302 399.135C324.328 404.852 323.211 410.516 321.016 415.794C318.822 421.073 315.594 425.859 311.523 429.872C303.003 438.724 289.637 443.149 271.425 443.149C249.053 443.149 232.844 436.754 222.797 423.964C212.75 411.173 207.727 393.47 207.727 370.854V235.824H180.11V520.125C216.985 539.856 258.183 550.121 300.005 549.999C439.184 549.999 552.009 438.104 552.009 300.086C552.003 275.863 548.435 251.773 541.42 228.588Z" fill="white"/>
</svg>
